<svg width="323" height="82" viewBox="0 0 323 82" fill="none" xmlns="http://www.w3.org/2000/svg">
    <path
        d="M125.506 53.473H121.241L108.407 34.054V53.473H104.142V27.4314H108.407L121.241 46.8129V27.4314H125.506V53.473ZM135.373 35.8874C136.096 34.9395 137.082 34.1413 138.329 33.4928C139.576 32.8442 140.985 32.52 142.557 32.52C144.353 32.52 145.987 32.969 147.458 33.8669C148.955 34.74 150.127 35.9747 150.976 37.5711C151.824 39.1676 152.248 41.001 152.248 43.0713C152.248 45.1417 151.824 47 150.976 48.6463C150.127 50.2677 148.955 51.5398 147.458 52.4628C145.987 53.3608 144.353 53.8098 142.557 53.8098C140.985 53.8098 139.589 53.498 138.366 52.8743C137.144 52.2258 136.146 51.4276 135.373 50.4797V63.276H131.108V32.8567H135.373V35.8874ZM147.907 43.0713C147.907 41.6495 147.608 40.4272 147.009 39.4045C146.436 38.3569 145.662 37.5711 144.69 37.0473C143.742 36.4985 142.719 36.2242 141.621 36.2242C140.549 36.2242 139.526 36.4985 138.553 37.0473C137.605 37.5961 136.832 38.3943 136.234 39.442C135.66 40.4896 135.373 41.7243 135.373 43.1462C135.373 44.568 135.66 45.8152 136.234 46.8878C136.832 47.9354 137.605 48.7336 138.553 49.2824C139.526 49.8312 140.549 50.1056 141.621 50.1056C142.719 50.1056 143.742 49.8312 144.69 49.2824C145.662 48.7087 146.436 47.8855 147.009 46.8129C147.608 45.7403 147.907 44.4931 147.907 43.0713ZM167.129 32.52C168.701 32.52 170.098 32.8567 171.32 33.5302C172.567 34.2037 173.54 35.2015 174.238 36.5235C174.962 37.8455 175.323 39.442 175.323 41.3128V53.473H171.095V41.9488C171.095 40.103 170.634 38.6936 169.711 37.7208C168.788 36.723 167.528 36.2242 165.932 36.2242C164.336 36.2242 163.063 36.723 162.116 37.7208C161.193 38.6936 160.731 40.103 160.731 41.9488V53.473H156.466V25.7851H160.731V35.2513C161.455 34.3783 162.365 33.7048 163.463 33.2309C164.585 32.7569 165.807 32.52 167.129 32.52ZM191.166 32.52C192.787 32.52 194.234 32.8567 195.506 33.5302C196.803 34.2037 197.814 35.2015 198.537 36.5235C199.26 37.8455 199.622 39.442 199.622 41.3128V53.473H195.394V41.9488C195.394 40.103 194.933 38.6936 194.01 37.7208C193.087 36.723 191.827 36.2242 190.231 36.2242C188.634 36.2242 187.362 36.723 186.414 37.7208C185.491 38.6936 185.03 40.103 185.03 41.9488V53.473H180.764V32.8567H185.03V35.2139C185.728 34.3658 186.614 33.7048 187.686 33.2309C188.784 32.7569 189.944 32.52 191.166 32.52ZM220.89 38.1324V41.7243H205.512V38.1324H220.89ZM235.518 53.7349C233.772 53.7349 232.201 53.4356 230.804 52.8369C229.407 52.2133 228.309 51.3403 227.511 50.2178C226.713 49.0953 226.314 47.7858 226.314 46.2891H230.879C230.978 47.4116 231.415 48.3345 232.188 49.0579C232.986 49.7813 234.096 50.143 235.518 50.143C236.99 50.143 238.137 49.7938 238.96 49.0953C239.784 48.3719 240.195 47.449 240.195 46.3265C240.195 45.4535 239.933 44.7426 239.409 44.1938C238.911 43.645 238.275 43.221 237.501 42.9217C236.753 42.6223 235.705 42.2981 234.358 41.9488C232.662 41.4998 231.278 41.0508 230.205 40.6019C229.157 40.1279 228.259 39.4045 227.511 38.4317C226.763 37.4589 226.389 36.1618 226.389 34.5404C226.389 33.0438 226.763 31.7342 227.511 30.6117C228.259 29.4893 229.307 28.6287 230.654 28.03C232.001 27.4314 233.56 27.132 235.331 27.132C237.85 27.132 239.908 27.7681 241.505 29.0403C243.126 30.2875 244.024 32.0086 244.199 34.2037H239.484C239.409 33.2558 238.96 32.4451 238.137 31.7716C237.314 31.0981 236.229 30.7614 234.882 30.7614C233.66 30.7614 232.662 31.0732 231.889 31.6968C231.116 32.3204 230.729 33.2184 230.729 34.3908C230.729 35.189 230.966 35.85 231.44 36.3738C231.939 36.8727 232.562 37.2718 233.311 37.5711C234.059 37.8705 235.082 38.1947 236.379 38.544C238.1 39.0179 239.497 39.4918 240.569 39.9658C241.667 40.4397 242.59 41.1756 243.338 42.1733C244.111 43.1462 244.498 44.4557 244.498 46.102C244.498 47.4241 244.136 48.6713 243.413 49.8436C242.715 51.016 241.679 51.9639 240.307 52.6873C238.96 53.3857 237.364 53.7349 235.518 53.7349ZM254.507 36.3364V47.7483C254.507 48.5216 254.682 49.0828 255.031 49.4321C255.405 49.7563 256.029 49.9185 256.902 49.9185H259.521V53.473H256.154C254.233 53.473 252.761 53.024 251.739 52.126C250.716 51.228 250.205 49.7688 250.205 47.7483V36.3364H247.773V32.8567H250.205V27.7307H254.507V32.8567H259.521V36.3364H254.507ZM272.395 53.8098C270.449 53.8098 268.691 53.3732 267.119 52.5002C265.548 51.6022 264.313 50.355 263.415 48.7586C262.517 47.1372 262.068 45.2664 262.068 43.1462C262.068 41.0508 262.53 39.1925 263.453 37.5711C264.375 35.9498 265.635 34.7026 267.232 33.8295C268.828 32.9565 270.612 32.52 272.582 32.52C274.553 32.52 276.336 32.9565 277.933 33.8295C279.529 34.7026 280.789 35.9498 281.712 37.5711C282.635 39.1925 283.096 41.0508 283.096 43.1462C283.096 45.2415 282.622 47.0998 281.674 48.7212C280.726 50.3425 279.429 51.6022 277.783 52.5002C276.162 53.3732 274.366 53.8098 272.395 53.8098ZM272.395 50.1056C273.493 50.1056 274.515 49.8436 275.463 49.3198C276.436 48.796 277.222 48.0103 277.82 46.9626C278.419 45.9149 278.718 44.6428 278.718 43.1462C278.718 41.6495 278.431 40.3898 277.858 39.3671C277.284 38.3195 276.523 37.5337 275.575 37.0099C274.628 36.4861 273.605 36.2242 272.507 36.2242C271.41 36.2242 270.387 36.4861 269.439 37.0099C268.516 37.5337 267.78 38.3195 267.232 39.3671C266.683 40.3898 266.408 41.6495 266.408 43.1462C266.408 45.3662 266.97 47.0873 268.092 48.3096C269.24 49.5069 270.674 50.1056 272.395 50.1056ZM291.578 35.85C292.202 34.8023 293.025 33.9917 294.048 33.418C295.095 32.8193 296.33 32.52 297.752 32.52V36.9351H296.667C294.995 36.9351 293.723 37.3591 292.85 38.2072C292.002 39.0553 291.578 40.527 291.578 42.6223V53.473H287.313V32.8567H291.578V35.85ZM320.568 42.6597C320.568 43.433 320.518 44.1314 320.418 44.755H304.666C304.791 46.4014 305.402 47.7234 306.499 48.7212C307.597 49.7189 308.944 50.2178 310.54 50.2178C312.835 50.2178 314.456 49.2575 315.404 47.3368H320.006C319.383 49.2325 318.248 50.7915 316.602 52.0138C314.98 53.2111 312.96 53.8098 310.54 53.8098C308.57 53.8098 306.799 53.3732 305.227 52.5002C303.681 51.6022 302.458 50.355 301.56 48.7586C300.687 47.1372 300.251 45.2664 300.251 43.1462C300.251 41.0259 300.675 39.1676 301.523 37.5711C302.396 35.9498 303.606 34.7026 305.152 33.8295C306.724 32.9565 308.52 32.52 310.54 32.52C312.486 32.52 314.219 32.944 315.741 33.7921C317.263 34.6402 318.447 35.8375 319.296 37.3841C320.144 38.9057 320.568 40.6642 320.568 42.6597ZM316.115 41.3128C316.09 39.7413 315.529 38.4816 314.431 37.5337C313.334 36.5859 311.974 36.1119 310.353 36.1119C308.881 36.1119 307.622 36.5859 306.574 37.5337C305.526 38.4567 304.903 39.7163 304.703 41.3128H316.115Z"
        fill="#FA7275" />
    <rect opacity="0.2" width="74.8323" height="74.8323" rx="37.4161" fill="#FA7275" />
    <rect x="32.7391" y="31.1801" width="49.8882" height="49.8882" rx="24.9441" fill="#FA7275" />
</svg>